<?xml version="1.0" encoding="UTF-8"?>
<svg id="a" data-name="artwork" xmlns="http://www.w3.org/2000/svg" viewBox="0 0 1486 600">
  <defs>
    <style>
      .b {
        fill: #56a0d3;
      }

      .c {
        fill: #56a1d5;
      }
    </style>
  </defs>
  <path d="M547.71,290.02v147.69c0,19.16,4.16,25.95,14.7,32.03l19.06,10.95-15.61,27.98c-36.49-17.44-53.62-30.41-53.62-64.47v-154.18h35.48Z"/>
  <path d="M728.96,484.14h-.71c-13.33,16.1-33.34,25.15-54.23,24.53-47.03,.35-85.43-37.49-85.78-84.52,0-.82,0-1.64,.02-2.45,.66-47.99,39.49-86.69,87.48-87.18,20.5-1.09,40.19,8.11,52.51,24.53h.71v-20.27h35.48v165.43h-35.48v-20.07Zm-50.68-8.92c29.56,.5,53.92-23.05,54.43-52.6,.5-29.56-23.05-53.92-52.6-54.43-29.56-.5-53.92,23.05-54.43,52.6,0,.3,0,.6,0,.9-.28,29.28,23.23,53.24,52.51,53.52,.1,0,.2,0,.31,0h-.2Z"/>
  <path d="M809.45,290.02h35.48v69.23h.71c8.51-13.68,30.41-24.53,53.83-24.53,46.74-.75,85.24,36.54,85.98,83.28,.02,1.23,.01,2.46-.02,3.69,1.29,46.73-35.54,85.66-82.27,86.95-1.23,.03-2.46,.04-3.69,.02-20.8,.72-40.73-8.36-53.83-24.53h-.71v20.27h-35.48v-214.39Zm86.97,78.16c-27.99-.49-51.08,21.8-51.57,49.79-.02,1.25,0,2.49,.07,3.74-.02,28.44,23.01,51.51,51.45,51.54,28.44,.02,51.51-23.01,51.54-51.45v-.09c1.57-27.95-19.81-51.88-47.76-53.45-1.24-.07-2.49-.09-3.74-.07Z"/>
  <path d="M1026.68,455.14c13.54,14.45,32.13,23.13,51.9,24.23,20.27,0,32.74-11.66,32.74-20.88,0-10.85-8.51-16.73-21.49-19.06l-20.27-3.75c-46.33-8.51-59.3-23.52-59.3-47.14,.1-27.88,24.02-54.03,64.57-54.03,23.75,.17,46.77,8.19,65.48,22.81l-20.27,24.94c-12.07-11.34-27.85-17.9-44.4-18.45-15.31,0-30.41,7.6-30.41,20.88,0,10.14,7.81,15,21.49,17.33l35.78,6.79c29.3,5.47,43.69,19.46,43.69,44.1s-19.77,55.55-69.94,55.55c-27.49-.17-53.96-10.5-74.3-28.99l24.73-24.33Z"/>
  <rect x="297.64" y="399.9" width="44.91" height="44.91"/>
  <rect x="235.09" y="554.89" width="44.91" height="44.91"/>
  <rect x="422.93" y="244.91" width="44.91" height="44.8"/>
  <rect class="b" x="360.28" y="399.9" width="44.91" height="44.91"/>
  <rect class="b" x="360.28" y="296.6" width="44.91" height="44.8"/>
  <rect class="b" x="297.64" y="503.19" width="44.91" height="44.91"/>
  <rect class="b" x="297.64" y="244.91" width="44.91" height="44.8"/>
  <rect class="b" x="235.09" y="451.6" width="44.91" height="44.91"/>
  <rect class="b" x="235.09" y="296.6" width="44.91" height="44.8"/>
  <rect class="b" x="422.93" y="348.2" width="44.91" height="44.8"/>
  <rect class="b" x="422.93" y="451.6" width="44.91" height="44.91"/>
  <path d="M467.43,78.16v-11.25c0-21.29-242.78-23.31-242.78-23.31v7.81h20.98v31.83c-12.98-.61-20.98-.81-20.98-.81v3.85s30.41,.71,69.74,4.56C161.4,103.19,.32,120.02,.32,154.08v24.33c0,26.76,38.01,42.78,83.53,52.41v289.51C38.34,496.71,.32,457.68,.32,392.3v30.41c0,177.29,236.59,177.29,236.59,177.29v-44.6c-48.26-1.03-95.92-10.92-140.6-29.19V233.15c46.49,7.6,93.49,11.6,140.6,11.96v1.82c115.76-35.68,230.51-57.68,230.51-89.91v-9.53c0,10.14-12.47,18.55-33.25,27.07V89.2c20.78-3.55,33.25-7.1,33.25-11.05Zm-33.25-13.79c8.94,1.19,17.72,3.4,26.15,6.59-8.59,2.3-17.33,4.02-26.15,5.17v-11.76Zm-92.55-9.02c11.76,.61,23.52,1.42,34.97,2.33v25.44l-34.97,3.45v-31.22Zm-31.02-1.62l25.65,1.32v31.93l-20.27,1.82-5.78-.61,.41-34.47Zm-36.59,31.22c-9.33-.71-17.84-1.22-25.04-1.52v-31.63l25.04,.61v32.54Zm3.95,0V52.51l28.38,1.01v34.16c-10.34-.91-19.87-1.82-28.69-2.43l.3-.3ZM111.83,204.16c-47.03-6.28-92.65-17.33-106.84-36.9,13.28-15.21,54.43-27.67,106.84-37.4v74.3Zm98.33,7.6c-22.2-.71-55.45-2.43-89-6.49v-77.04c27.67-4.87,57.98-9.12,89-12.98v96.5Zm114.55-4.76c-27.98,7.2-57.88,14.9-87.99,23.42v-18.14h-18.14V114.14c35.99-4.36,72.58-8.11,106.13-11.66v104.51Zm102.48-29.6c-24.13,9.02-57.27,17.94-94.58,27.57V101.37c37.3-3.85,70.45-7.6,94.58-11.25v87.28Zm0-99.95c-12.57,1.72-27.57,3.45-44.4,5.07v-24.33c16.22,1.42,31.42,3.04,44.4,5.07v14.19Z"/>
  <path class="b" d="M341.63,86.57l34.97-3.45v-25.44c-11.45-.91-23.21-1.72-34.97-2.33v31.22Zm92.55-22.2v12.16c8.83-1.28,17.57-3.14,26.15-5.58-8.44-3.19-17.21-5.4-26.15-6.59Zm-123.57,23.82l5.78,.61,20.27-1.82v-31.93l-26.05-1.32v34.47Zm72.17-5.68c16.83-1.62,31.83-3.35,44.4-5.07v-14.19c-12.98-2.03-28.18-3.65-44.4-5.07v24.33Zm-158.13,0s8.01,0,20.98,.81v-31.63h-20.98v30.82Zm24.02,1.01c7.2,0,15.71,.81,25.04,1.52V52.41l-25.04-.61v31.73Zm28.99,1.82c8.82,.61,18.35,1.52,28.38,2.43V53.52l-28.38-1.01v32.84Z"/>
  <path class="b" d="M4.99,167.26c14.19,19.56,59.81,30.41,106.94,36.9v-74.3c-52.51,9.73-93.66,22.2-106.94,37.4Zm116.27,38.01c33.55,4.05,66.8,5.78,89,6.49V115.26c-31.02,3.85-61.33,8.11-89,12.98v77.04Zm97.52,6.69h18.14v18.14c30.41-8.51,60.01-16.22,87.99-23.42V102.48c-33.55,3.55-70.15,7.3-106.13,11.66v97.82Zm113.84-6.99c37.3-9.63,70.45-18.55,94.58-27.57V90.32c-24.13,3.65-57.27,7.4-94.58,11.25v103.4Zm101.57-115.76v85.45c20.78-8.51,33.25-17.23,33.25-27.07V78.16c0,3.95-12.47,7.5-33.25,11.05Z"/>
  <path class="b" d="M.32,178.41v213.89c0,65.38,38.01,104.41,83.53,128.03V230.82C38.34,221.19,.32,205.17,.32,178.41Zm96,54.74v292.95c44.68,18.27,92.34,28.17,140.6,29.19V245.21c-47.11-.39-94.11-4.43-140.6-12.06Z"/>
  <g>
    <path class="c" d="M512.73,129.15c0-46.98,31.33-74.12,67.63-74.12,27.89,0,48.15,13.38,55.41,32.85h.77c7.26-19.46,27.5-32.85,55.39-32.85,36.31,0,67.64,27.14,67.64,74.12v115.81h-39.73v-115.4c0-22.16-14.14-34.79-30.58-34.79-19.1,0-33.23,11.46-33.23,40.11v110.08h-39.75v-110.08c0-28.64-14.14-40.11-33.24-40.11-16.43,0-30.58,12.62-30.58,34.79v115.4h-39.74v-115.81Z"/>
    <path class="c" d="M898.3,55.04c64.57,0,102.02,48.53,102.02,97.43s-37.45,97.48-102.02,97.48-102.02-48.55-102.02-97.48,37.43-97.43,102.02-97.43Zm0,157.44c34.76,0,60-26.74,60-60.01s-25.24-59.99-60-59.99-60,26.75-60,59.99,25.22,60.01,60,60.01Z"/>
    <path class="c" d="M1011.04,59.98h44.31l40.89,105.86h.76l40.89-105.86h44.33l-85.61,189.96-85.58-189.96Z"/>
    <path class="c" d="M1227.3,0c12.24,0,22.17,9.94,22.17,22.16s-9.94,22.17-22.17,22.17-22.15-9.96-22.15-22.17,9.93-22.16,22.15-22.16Zm-19.87,59.98h39.74V244.96h-39.74V59.98Z"/>
    <path class="c" d="M1475.7,204.82c-22.16,27.9-52.75,44.75-86,45.13-64.57,0-102.04-48.55-102.04-97.48s37.47-97.43,102.04-97.43c38.59,0,95.92,31.72,95.92,103.94v7.25h-153.63c2.31,28.29,28.67,48.54,56.56,48.54,21.39,0,39.74-10.31,53.51-28.66l33.64,18.71Zm-36.7-71.44c-8.39-28.29-29.41-43.2-54.65-43.2s-45.83,15.67-52.35,43.2h107Z"/>
  </g>
  <path d="M1250.36,473.99c0,9.47-3.38,17.59-10.13,24.34-6.75,6.76-14.87,10.13-24.34,10.13s-17.59-3.38-24.34-10.13c-6.75-6.75-10.13-14.87-10.13-24.34s3.38-17.54,10.13-24.32c6.75-6.77,14.87-10.16,24.34-10.16s17.59,3.39,24.34,10.16c6.75,6.77,10.13,14.88,10.13,24.32Zm-4.88,0c0-8.15-2.89-15.12-8.68-20.91-5.79-5.79-12.76-8.68-20.91-8.68s-15.08,2.9-20.88,8.71c-5.8,5.8-8.71,12.76-8.71,20.88s2.88,15.12,8.66,20.91c5.77,5.79,12.75,8.68,20.93,8.68s15.08-2.9,20.88-8.71c5.8-5.8,8.71-12.76,8.71-20.88Zm-13.33,20.07h-6.54l-7.71-17.09h-11.04v17.09h-5.91v-40.09h16.95c4.57,0,7.99,1.18,10.26,3.52,2.27,2.35,3.4,4.96,3.4,7.83,0,2.12-.62,4.16-1.87,6.12-1.25,1.96-3.19,3.34-5.85,4.16l8.3,18.46Zm-25.29-21.78h10.41c2.72,0,4.74-.68,6.06-2.03,1.33-1.36,1.99-3.03,1.99-5.02s-.7-3.62-2.11-4.68c-1.41-1.06-3.17-1.59-5.3-1.59h-11.04v13.33Z"/>
</svg>